<svg xmlns="http://www.w3.org/2000/svg" xmlns:xlink="http://www.w3.org/1999/xlink" version="1.1" width="595.2756pt" height="841.8898pt" viewBox="0 0 595.2756 841.8898">
<g id="layer_1" data-name="Layer 1">
<path transform="matrix(1,0,0,-1,0,841.8898)" d="M210.8795 332.2358V315.7129C210.8795 315.0544 210.8608 314.5269 210.8242 314.1306L216.9309 314.8078C216.9043 315.2214 216.8912 315.758 216.8912 316.4185V323.464C218.0886 323.464 219.0022 323.3064 219.6323 322.9911 220.2627 322.6762 220.811 322.0648 221.2897 321.1512 221.7626 320.2438 222.0775 319.0717 222.2223 317.641H222.9409V330.7612H222.2223C222.027 328.8203 221.567 327.352 220.8549 326.3564 220.1366 325.3606 218.9835 324.8629 217.389 324.8629H216.8912V335.0716H219.5002C221.3906 335.0716 222.6762 334.9582 223.363 334.7376 224.5414 334.3657 225.449 333.786 226.0916 332.9983 226.7345 332.2106 227.2385 330.9126 227.5914 329.0975H228.31V336.5084H207.3631V335.8655H208.1886C209.0015 335.8655 209.6379 335.6892 210.1042 335.3426 210.4381 335.1095 210.6652 334.7753 210.7848 334.3405 210.8477 334.076 210.8795 333.3764 210.8795 332.2358" fill="#ed1c24" fill-rule="evenodd"/>
<path transform="matrix(1,0,0,-1,0,841.8898)" d="M318.4189 426.312C323.7528 433.4905 327.1105 447.4307 326.4024 458.384 325.6322 470.2986 321.1577 480.5084 315.6282 487.7393 310.4745 494.4793 302.8071 501.0877 292.8747 505.133 281.0602 509.9451 270.3824 508.9113 256.8866 509.0774L251.5243 509.0703 221.8561 508.9635 221.8499 362.753C223.2017 364.2625 225.7909 369.1094 227.2286 371.1994 229.932 375.1302 233.5419 378.9221 236.9959 382.4379 249.1974 394.8576 272.4318 403.0767 292.5879 401.2968 313.9617 399.4092 334.2793 386.9008 344.9064 370.8153 351.7739 360.4207 349.6127 362.7068 354.2363 352.9936L373.4439 353.0205C371.6685 370.1282 351.4742 394.6839 338.1769 403.7479 336.8665 404.6414 336.0832 405.1789 334.7181 406.0284 321.4089 414.3098 314.9921 414.7316 311.29 416.7998 313.7661 419.9885 316.5514 422.5708 318.4189 426.312ZM240.4862 408.3267 240.5625 490.1947C247.4926 490.7282 256.1973 490.2829 263.3207 490.2829 270.9969 490.2829 277.3865 490.8124 284.254 488.3871 295.1135 484.5521 302.9692 476.1867 306.462 464.7518 312.1946 445.9847 300.4177 426.4866 283.7509 421.2363 270.2951 416.9976 254.5441 412.5986 240.4862 408.3267" fill="#010101" fill-rule="evenodd"/>
<path transform="matrix(1,0,0,-1,0,841.8898)" d="M321.592 516.6386 330.7045 508.5629C341.428 495.9723 351.5031 480.1158 352.5024 461.5934 352.8524 456.0497 353.1526 451.1682 352.6282 445.4376 352.2243 437.5179 350.1332 432.1383 348.3567 425.4001L359.7622 416.7139C361.6676 415.192 361.6498 414.4365 363.8052 413.3767 364.358 415.3601 365.4091 417.7151 366.2549 419.9698 367.0818 422.1746 367.6881 424.3141 368.3962 426.9178 376.613 457.1229 369.4972 489.8979 350.5402 514.0559 336.3704 532.1137 316.4547 544.7789 293.6999 549.9468 281.9716 552.6102 271.4006 552.28 259.0206 552.28 246.8883 552.28 234.036 552.6884 221.9941 552.2426L221.832 533.6793C238.6001 533.7632 255.5314 533.7315 272.4069 533.6756 283.826 533.6382 293.8062 531.2489 303.8528 527.0868 305.31 526.483 306.6114 525.9464 308.158 525.1586 312.8882 522.7495 317.3587 519.8958 321.592 516.6386" fill="#ed1c24" fill-rule="evenodd"/>
<path transform="matrix(1,0,0,-1,0,841.8898)" d="M318.9475 364.0065C318.3693 365.3529 318.9231 364.8345 317.6334 365.961 313.4225 369.6386 308.3363 372.6159 302.9202 374.7416 298.3221 376.5464 298.3181 375.6067 293.7847 374.3887 276.8383 369.8359 265.3965 373.104 261.2761 371.4755 256.7891 369.7024 244.7807 358.3871 243.6823 353.5019 263.8468 354.0838 285.3425 350.9048 303.0922 357.6526 308.4012 358.9087 313.971 361.9332 318.9475 364.0065" fill="#ed1c24" fill-rule="evenodd"/>
<text fill="#030405" xml:space="preserve" transform="matrix(1 0 -0 1 0 841.8898)" font-size="18" font-family="ArialNarrow" font-weight="bold"><tspan y="-289.4383" x="213.0795 226.2941 240.3185 247.79399 259.9288 272.8735 285.26353 295.10954 302.58213 314.97215 322.44764 338.11613 345.5916 357.98133 371.19615">PRIVATE LIMITED</tspan></text>
<path transform="matrix(1,0,0,-1,0,841.8898)" d="M191.4386 325.241V335.1095C193.2537 335.122 194.5706 334.9457 195.3899 334.5738 196.2156 334.2019 196.8457 333.6664 197.2868 332.9544 197.7279 332.2485 197.9484 331.3409 197.9484 330.232 197.9484 329.1228 197.7216 328.2092 197.274 327.4971 196.8267 326.7785 196.1838 326.2241 195.3459 325.8334 194.5077 325.4363 193.2032 325.241 191.4386 325.241ZM198.1689 324.7432C200.3936 325.2977 201.9438 326.0475 202.826 326.9866 203.7081 327.9319 204.1492 329.0031 204.1492 330.213 204.1492 331.3536 203.8028 332.4376 203.1157 333.4521 202.4226 334.4666 201.4838 335.2292 200.2864 335.7397 199.0891 336.2499 197.0597 336.5084 194.1863 336.5084H182.1753V335.8655C183.3222 335.8655 184.1037 335.7584 184.5258 335.5506 184.9416 335.3363 185.2379 335.0529 185.4017 334.6999 185.5718 334.347 185.6537 333.4898 185.6537 332.1224V315.8263C185.6537 314.4589 185.5718 313.6017 185.4017 313.2553 185.2379 312.9086 184.9482 312.6249 184.532 312.4108 184.1224 312.19 183.3347 312.0831 182.1753 312.0831V311.4403H186.5602L202.3291 313.1887C202.5669 313.3414 202.7937 313.5044 203.0088 313.6774 204.5273 314.9124 205.2836 316.4754 205.2836 318.3596 205.2836 320.1491 204.5906 321.605 203.2041 322.7267 202.2398 323.5144 200.5574 324.1885 198.1689 324.7432ZM191.4386 315.7758V323.8041C193.3418 323.8169 194.7725 323.634 195.7303 323.2559 196.6881 322.8778 197.4064 322.2224 197.898 321.296 198.3832 320.3697 198.629 319.3237 198.629 318.1578 198.629 317.1433 198.4085 316.2169 197.9736 315.3915 197.5388 314.5595 196.9149 313.9294 196.0957 313.4945 195.2765 313.0597 194.3881 312.8391 193.4175 312.8391 192.7621 312.8391 192.2706 313.0095 191.9367 313.3497 191.6025 313.6836 191.4386 314.1879 191.4386 314.8495Z" fill="#ed1c24" fill-rule="evenodd"/>
<path transform="matrix(1,0,0,-1,0,841.8898)" d="M234.1704 335.0653C234.517 334.6495 235.2101 333.2316 236.2436 330.8179L241.9157 317.5784 248.7433 318.3355 253.9828 330.0301C255.0101 332.3242 255.7789 333.7798 256.2956 334.3975 257.0077 335.2292 257.8207 335.7145 258.728 335.8655V336.5084H250.5359V335.8655C251.4118 335.8655 252.1114 335.7584 252.6406 335.5506 253.025 335.3992 253.3085 335.1787 253.5103 334.8952 253.7056 334.6053 253.8065 334.2776 253.8065 333.906 253.8065 333.5783 253.7371 333.1874 253.5985 332.7273 253.4661 332.2672 253.0945 331.3599 252.4958 329.9987L247.574 318.9141 242.2366 331.3661C241.6694 332.7021 241.3355 333.5213 241.2346 333.824 241.1337 334.1327 241.0897 334.3975 241.0897 334.6243 241.0897 334.9896 241.2283 335.2669 241.5118 335.4497 241.9024 335.7269 242.6462 335.8655 243.7299 335.8655H244.1333V336.5084H232.1853V335.8655C233.1558 335.7522 233.8174 335.4874 234.1704 335.0653" fill="#ed1c24" fill-rule="evenodd"/>
<path transform="matrix(1,0,0,-1,0,841.8898)" d="M262.6288 335.3426C262.9627 335.1095 263.1898 334.7753 263.3094 334.3405 263.3723 334.076 263.4041 333.3764 263.4041 332.2358V319.9612L269.4158 320.6276V323.464C270.6131 323.464 271.5267 323.3064 272.1569 322.9911 272.7873 322.6762 273.3355 322.0648 273.8143 321.1512 273.8203 321.1398 273.8259 321.1288 273.8319 321.1174L275.4655 321.2986V330.7612H274.7469C274.5516 328.8203 274.0915 327.352 273.3795 326.3564 272.6612 325.3606 271.508 324.8629 269.9135 324.8629H269.4158V335.0716H272.0248C273.9152 335.0716 275.2007 334.9582 275.8876 334.7376 277.0659 334.3657 277.9736 333.786 278.6162 332.9983 279.2591 332.2106 279.7631 330.9126 280.116 329.0975H280.8346V336.5084H259.8877V335.8655H260.7131C261.5261 335.8655 262.1625 335.6892 262.6288 335.3426" fill="#ed1c24" fill-rule="evenodd"/>
<path transform="matrix(1,0,0,-1,0,841.8898)" d="M288.2957 334.7124C288.4657 334.3657 288.5477 333.5151 288.5477 332.1604V322.7491L305.7171 324.6531C305.8648 324.7625 306.0043 324.8765 306.1358 324.9952 307.4652 326.2051 308.1334 327.7363 308.1334 329.5828 308.1334 331.1016 307.6923 332.4249 306.8036 333.553 305.915 334.6872 304.7681 335.4625 303.3629 335.8783 301.9575 336.3004 299.7456 336.5084 296.7146 336.5084H285.069V335.8655C286.2159 335.8655 286.9974 335.7584 287.4195 335.5506 287.8356 335.3426 288.1318 335.0653 288.2957 334.7124ZM294.4083 324.1823V335.1095H296.3869C298.372 335.1095 299.8089 334.6557 300.7035 333.7483 301.5984 332.8407 302.046 331.4356 302.046 329.5324 302.046 328.2216 301.8002 327.1567 301.3149 326.3437 300.8296 325.531 300.1618 324.9638 299.3108 324.6486 298.4601 324.3399 297.1746 324.1823 295.4605 324.1823Z" fill="#ed1c24" fill-rule="evenodd"/>
<path transform="matrix(1,0,0,-1,0,841.8898)" d="M325.2549 337 320.4547 326.2873 322.115 326.4712 323.0178 328.4864 323.8172 326.66 329.8623 327.3304 325.6078 337Z" fill="#ed1c24" fill-rule="evenodd"/>
<path transform="matrix(1,0,0,-1,0,841.8898)" d="M344.4814 333.1811C343.0919 331.818 342.0672 330.2952 341.407 328.6106L347.8609 329.326C347.887 329.4264 347.9136 329.5267 347.9411 329.6271 348.4579 331.505 349.34 332.9731 350.5878 334.0256 351.8357 335.0778 353.3922 335.6011 355.2701 335.6011 357.23 335.6011 359.0385 334.9772 360.6894 333.7294 361.6359 333.0142 362.4477 332.1105 363.1238 331.0186L365.0502 331.232V337.0757H364.4076C364.1618 336.3698 363.8908 335.8908 363.5946 335.6388 363.2984 335.3868 362.9769 335.2606 362.6306 335.2606 362.41 335.2606 361.6914 335.4874 360.4816 335.9475 359.2653 336.4075 358.3894 336.6848 357.8474 336.7857 356.8456 336.981 355.7302 337.0757 354.4824 337.0757 350.4682 337.0757 347.1347 335.7774 344.4814 333.1811" fill="#ed1c24" fill-rule="evenodd"/>
<path transform="matrix(1,0,0,-1,0,841.8898)" d="M371.8687 335.3426C372.2026 335.1095 372.4296 334.7753 372.5493 334.3405 372.6122 334.076 372.6439 333.3764 372.6439 332.2358V332.0742L378.6557 332.7409V335.0716H381.2647C383.1551 335.0716 384.4406 334.9582 385.1274 334.7376 385.9325 334.4837 386.6111 334.1324 387.1653 333.6843L390.0745 334.0069V336.5084H369.1276V335.8655H369.953C370.766 335.8655 371.4024 335.6892 371.8687 335.3426" fill="#ed1c24" fill-rule="evenodd"/>
<path transform="matrix(1,0,0,-1,0,841.8898)" d="M403.2952 337.0757C401.0644 337.0757 399.2179 336.3761 397.7561 334.9709 397.7121 334.929 397.669 334.8867 397.6265 334.8445L401.5559 335.2802C402.1384 335.5449 402.8253 335.6765 403.6167 335.6765 403.9223 335.6765 404.2242 335.6541 404.5218 335.609L407.77 335.969C406.9406 336.3647 406.2368 336.6349 405.6582 336.7857 404.8957 336.981 404.1082 337.0757 403.2952 337.0757" fill="#ed1c24" fill-rule="evenodd"/>
<path transform="matrix(1,0,0,-1,0,841.8898)" d="M410.7943 337.0757C410.728 336.7627 410.6582 336.498 410.5862 336.2814L411.3771 336.369 411.3612 337.0757Z" fill="#ed1c24" fill-rule="evenodd"/>
<path transform="matrix(1,0,0,-1,0,841.8898)" d="M401.6378 329.1608C400.8438 329.7277 400.2704 330.3011 399.9175 330.8746 399.659 331.3094 399.5269 331.8009 399.5269 332.3557 399.5269 333.2254 399.8923 334.0003 400.6295 334.6682 400.9017 334.9193 401.2104 335.1231 401.5559 335.2802L397.6265 334.8445C396.2446 333.4637 395.5567 331.8046 395.5567 329.8663 395.5567 328.7007 395.8214 327.6292 396.3569 326.6527 396.8926 325.6821 397.6551 324.7999 398.6444 324.0122 399.6403 323.2244 401.2787 322.2666 403.5597 321.1512 405.1857 320.351 406.3201 319.7018 406.9627 319.2041 407.6056 318.6998 408.0781 318.1768 408.3934 317.6223 408.7083 317.0676 408.8659 316.4941 408.8659 315.9082 408.8659 314.9062 408.4563 314.0365 407.6371 313.2867 406.8179 312.5367 405.7149 312.1586 404.335 312.1586 402.5452 312.1586 400.8815 312.8581 399.3313 314.2508 397.7875 315.6435 396.7413 317.6725 396.1996 320.3257H395.5567V310.873H396.1996C396.4201 311.3836 396.7098 311.7617 397.0692 312.0137 397.4284 312.2595 397.7623 312.3856 398.0837 312.3856 398.4681 312.3856 398.9534 312.2657 399.5456 312.0199 400.6043 311.5726 401.4865 311.2702 402.1923 311.1126 402.8919 310.955 403.6416 310.873 404.4294 310.873 406.9437 310.873 409.017 311.6293 410.6492 313.1354 412.2814 314.6414 413.1006 316.4374 413.1006 318.5297 413.1006 320.1806 412.5966 321.6427 411.582 322.922 410.561 324.2013 408.5824 325.5625 405.6457 326.9991 403.5535 328.0326 402.2175 328.7574 401.6378 329.1608ZM411.3771 336.369 410.5862 336.2814C410.487 335.9832 410.3833 335.7771 410.2775 335.664 410.0947 335.4687 409.8427 335.374 409.5213 335.374 409.1873 335.374 408.6074 335.5693 407.7757 335.9665L407.77 335.969 404.5218 335.609C405.8073 335.4146 407.0191 334.8009 408.1601 333.7671 409.559 332.4943 410.4349 330.8117 410.7943 328.7194H411.5503Z" fill="#030405" fill-rule="evenodd"/>
<path transform="matrix(1,0,0,-1,0,841.8898)" d="M378.6557 324.8629V332.7409L372.6439 332.0742V315.7129C372.6439 314.4461 372.5745 313.6649 372.4421 313.3687 372.272 312.9463 372.0263 312.6501 371.7048 312.4738 371.2637 312.2152 370.6778 312.0831 369.953 312.0831H369.1276V311.4403H390.7613L391.8892 319.3994H391.2024C390.5912 317.181 389.5764 315.5363 388.165 314.4589 386.7534 313.3811 384.8754 312.8391 382.5374 312.8391H381.0376C380.3255 312.8391 379.8088 312.9401 379.4873 313.1354 379.1662 313.3307 378.9456 313.583 378.832 313.8917 378.7123 314.2003 378.6557 315.0386 378.6557 316.4185V323.464C379.853 323.464 380.7666 323.3064 381.3968 322.9911 382.0272 322.6762 382.5754 322.0648 383.0542 321.1512 383.527 320.2438 383.8419 319.0717 383.9868 317.641H384.7054V330.7612H383.9868C383.7915 328.8203 383.3314 327.352 382.6193 326.3564 381.901 325.3606 380.7479 324.8629 379.1534 324.8629Z" fill="#030405" fill-rule="evenodd"/>
<path transform="matrix(1,0,0,-1,0,841.8898)" d="M365.0502 318.2083C365.0502 319.1346 365.1069 319.7208 365.2206 319.9538 365.4159 320.4077 365.6993 320.7288 366.0585 320.9244 366.4242 321.1197 367.073 321.2456 367.9994 321.3088V321.9514H355.8246V321.3088H356.4675C357.0661 321.3088 357.5764 321.1889 357.9987 320.9496 358.4208 320.7163 358.7046 320.4454 358.8369 320.1554 358.969 319.8594 359.0385 319.2103 359.0385 318.2083V313.0282C358.3769 312.7825 357.7277 312.5934 357.0914 312.4675 356.4609 312.3351 355.8436 312.2719 355.2386 312.2719 353.5055 312.2719 352.012 312.6943 350.7517 313.545 349.4914 314.3957 348.5778 315.7191 348.0106 317.5277 347.4434 319.3362 347.1661 321.4346 347.1661 323.8356 347.1661 325.7093 347.3977 327.5376 347.8609 329.326L341.407 328.6106C340.81 327.0864 340.5115 325.4301 340.5115 323.6403 340.5115 321.5418 340.9401 319.6389 341.8033 317.9435 342.4776 316.6265 343.4165 315.4419 344.6138 314.3894 345.8112 313.3372 347.1976 312.4862 348.7666 311.8436 350.3358 311.1945 352.3082 310.873 354.6777 310.873 356.5366 310.873 358.3327 311.0559 360.0592 311.415 361.7861 311.7804 363.4498 312.3162 365.0502 313.0282Z" fill="#030405" fill-rule="evenodd"/>
<path transform="matrix(1,0,0,-1,0,841.8898)" d="M334.6381 316.4754 329.8623 327.3304 323.8172 326.66 326.7547 319.9476H319.1927L322.115 326.4712 320.4547 326.2873 316.3065 317.0299C315.4623 315.1015 314.7437 313.8287 314.1641 313.2111 313.6068 312.6172 312.889 312.2433 312.0279 312.0956V311.4403H320.2767V312.0831C318.9722 312.1838 318.153 312.3351 317.8191 312.5305 317.2581 312.8706 316.9746 313.3939 316.9746 314.106 316.9746 314.6414 317.1447 315.322 317.4914 316.1412L318.5816 318.5864H327.3471L328.7146 315.4606C329.0613 314.6352 329.2441 314.1626 329.2693 314.0555 329.3447 313.816 329.3765 313.583 329.3765 313.3559 329.3765 312.9843 329.2441 312.6943 328.9731 312.499 328.5822 312.2218 327.8954 312.0831 326.9251 312.0831H326.427V311.4403H338.5389V312.0831C337.7701 312.1461 337.1842 312.3666 336.7619 312.7572 336.2074 313.2677 335.5016 314.509 334.6381 316.4754" fill="#030405" fill-rule="evenodd"/>
<path transform="matrix(1,0,0,-1,0,841.8898)" d="M308.5682 314.7866 302.5627 323.2749C303.8576 323.5946 304.9089 324.0541 305.7171 324.6531L288.5477 322.7491V315.7883C288.5477 314.4399 288.4657 313.5892 288.2957 313.2425 288.1318 312.9024 287.8418 312.6186 287.426 312.4043 287.0164 312.19 286.2286 312.0831 285.069 312.0831V311.4403H297.8867V312.0831C296.7398 312.0831 295.9586 312.19 295.5362 312.3981 295.1203 312.6061 294.8241 312.8834 294.6603 313.2363 294.4902 313.583 294.4083 314.4399 294.4083 315.7883V322.8591H296.0529L304.1379 311.4403H311.9522V312.0831C311.9774 312.0871 312.0026 312.0911 312.0279 312.0956V312.1209C311.3597 312.1586 310.7673 312.3666 310.2633 312.7448 309.9294 313.0157 309.3622 313.6963 308.5682 314.7866" fill="#030405" fill-rule="evenodd"/>
<path transform="matrix(1,0,0,-1,0,841.8898)" d="M281.5214 311.4403 282.6493 319.3994H281.9625C281.3513 317.181 280.3365 315.5363 278.9252 314.4589 277.5135 313.3811 275.6356 312.8391 273.2975 312.8391H271.7977C271.0857 312.8391 270.5689 312.9401 270.2475 313.1354 269.9263 313.3307 269.7058 313.583 269.5921 313.8917 269.4725 314.2003 269.4158 315.0386 269.4158 316.4185V320.6276L263.4041 319.9612V315.7129C263.4041 314.4461 263.3346 313.6649 263.2022 313.3687 263.0322 312.9463 262.7864 312.6501 262.4649 312.4738 262.0239 312.2152 261.438 312.0831 260.7131 312.0831H259.8877V311.4403Z" fill="#030405" fill-rule="evenodd"/>
<path transform="matrix(1,0,0,-1,0,841.8898)" d="M275.4655 317.641V321.2986L273.8319 321.1174C274.2948 320.2149 274.6037 319.0541 274.7469 317.641Z" fill="#030405" fill-rule="evenodd"/>
<path transform="matrix(1,0,0,-1,0,841.8898)" d="M245.4001 310.873 248.7433 318.3355 241.9157 317.5784 244.7887 310.873Z" fill="#030405" fill-rule="evenodd"/>
<path transform="matrix(1,0,0,-1,0,841.8898)" d="M228.9969 311.4403 229.6743 316.2209 230.1248 319.3994H229.4379C229.0711 318.0685 228.5592 316.944 227.9035 316.0247 227.4664 315.4116 226.9653 314.89 226.4006 314.4589 224.9889 313.3811 223.111 312.8391 220.773 312.8391H219.2732C218.5611 312.8391 218.0443 312.9401 217.7229 313.1354 217.4017 313.3307 217.1812 313.583 217.0675 313.8917 217.0052 314.0527 216.9598 314.3574 216.9309 314.8078L210.8242 314.1306C210.7902 313.7649 210.7412 313.511 210.6777 313.3687 210.5076 312.9463 210.2618 312.6501 209.9404 312.4738 209.4993 312.2152 208.9134 312.0831 208.1886 312.0831H207.3631V311.4403Z" fill="#030405" fill-rule="evenodd"/>
<path transform="matrix(1,0,0,-1,0,841.8898)" d="M194.9046 311.4403C198.0363 311.4403 200.5123 312.0216 202.3291 313.1887L186.5602 311.4403Z" fill="#030405" fill-rule="evenodd"/>
</g>
</svg>
